<svg width="174" height="153" viewBox="0 0 174 153" fill="none" xmlns="http://www.w3.org/2000/svg">
<path d="M23.7617 17.9762L23.7656 17.9772L24.1406 18.0553H24.1416L24.5527 18.1647L24.5547 18.1656L24.9404 18.2955V18.2946L24.9453 18.2975L25.5068 18.6471L25.5078 18.6461L25.5107 18.649L27.5107 20.4362L29.8447 22.5817L32.4277 25.0768L35.1875 27.7701L35.1885 27.7692L38.0322 30.5143L40.5635 32.9674L42.2148 34.5563L43.4854 35.8112L43.4863 35.8121L44.6426 37.0621V37.0631L45.6064 38.1823L45.6084 38.1852L46.0361 38.8678L46.0371 38.8707L46.2871 39.4703L46.2881 39.4723L46.543 40.2477L46.5439 40.2496L46.7568 41.0621H46.7578V41.0641L46.8779 41.7828V41.7848L46.9297 42.5709V43.6002L46.8779 44.6832V44.6852L46.7686 45.6539V45.6549L46.5859 46.6969V46.6979L46.2627 48.0319L45.8877 49.4176V49.4186L45.5176 50.6471L45.5166 50.649L45.1006 51.7789V51.7799L44.6475 52.9147L44.6465 52.9156L44.209 53.9049L44.208 53.9069L43.8857 54.5162L43.585 55.0602L43.4238 55.4977L43.4092 55.8512L43.5166 56.1783L43.7275 56.4655L43.7266 56.4664L44.1768 56.9576L44.1777 56.9567L44.75 57.5045L45.3633 58.0348L45.3643 58.0338L45.9893 58.5446L46.5771 59.0231L47.0811 59.4078L47.3174 59.568L47.4688 59.6012L47.6055 59.567L48.3877 59.0074L49.4229 58.1276L52.2236 55.5143H52.2246L53.8389 54.0612L53.8398 54.0602L55.4385 52.7008L56.7197 51.6637L57.7715 50.8112V50.8102L58.667 50.025L59.3809 49.3463H59.3818L59.4473 49.2457L59.4707 49.1373L59.4316 48.8727L59.0566 47.8209L58.5928 46.5817L58.0459 45.1803L57.4844 43.7955L57.4834 43.7946L57.0303 42.5817L56.6299 41.5289H56.6289L56.6279 41.524L56.6025 41.3365L56.625 41.3336L56.6006 41.3365L56.6025 41.3268L56.6279 41.234L56.625 41.2321L56.6357 41.2223L56.6934 41.1705L56.6924 41.1696L56.6973 41.1676L57.5615 40.6617H57.5625L58.6143 40.0992H58.6152L59.8545 39.484L63.0947 37.9371C63.104 37.933 63.1153 37.9354 63.1221 37.943L64.3662 39.3336H64.3672V39.3346L65.0449 40.1832L65.0459 40.1842L66.3525 42.0543L67.8584 44.2682L69.4209 46.6383L73.249 52.5758C73.2526 52.5814 73.2538 52.5889 73.252 52.5953C73.25 52.6016 73.2452 52.6072 73.2393 52.61L70.3027 53.9791L68.958 54.6461L67.3291 55.5416H67.3281L65.7041 56.4996L64.3203 57.3785H64.3213L62.9873 58.3004L61.5352 59.4039L60.1504 60.4977L59.1094 61.403L58.1357 62.3239H58.1367L57.0166 63.485L55.9238 64.6823L55.0332 65.7076L54.1904 66.8004H54.1914L53.207 68.1334L52.2588 69.5084L51.499 70.6793L50.8066 71.8405L50.0879 73.1315L49.4229 74.359L48.9697 75.317L48.5527 76.3004H48.5537L48.0479 77.6227L47.5273 79.0602L47.0908 80.3658L46.6738 81.7516L46.252 83.3912L45.8613 85.0211L45.5957 86.3619H45.5967L45.3721 88.0446L45.2373 89.736L45.1953 91.7076L45.2529 94.2535L45.3828 96.8522L45.5547 98.8248L45.8252 100.557L46.2363 102.38L46.5957 103.728L47.0068 105.155L47.4082 106.43L47.4072 106.431L47.7305 107.325L48.0898 108.205L48.0889 108.206L48.6729 109.469L49.3389 110.854L50.0059 112.161L50.0049 112.162L50.7656 113.52L50.7646 113.521L51.7275 115.108L51.7285 115.107L52.7275 116.655L53.6182 117.892L54.5498 119.089L54.5488 119.09L55.7256 120.464L56.9238 121.797L57.9639 122.879L59.041 123.905L59.042 123.904L60.375 125.076L61.7227 126.195L62.8682 127.1L64.0908 127.954L65.6943 128.965L67.3975 129.938L68.916 130.751L68.917 130.75L70.4473 131.474L72.1455 132.218L73.752 132.875L73.7529 132.874L74.9658 133.312L76.1416 133.661L77.5674 134.046L77.5684 134.045L79.0059 134.379L80.2314 134.629L80.2324 134.628L81.6172 134.816L83.4551 134.977V134.976L85.4697 135.082L87.4268 135.112L89.666 135.082V135.081L91.5879 134.961V134.962L93.3555 134.78V134.779L95.0732 134.483V134.482L96.5 134.165L98.166 133.738L99.8057 133.27V133.269L101.138 132.843V132.842L102.429 132.354V132.353L103.976 131.697V131.698L105.512 131.005V131.005L106.791 130.366V130.365L108.04 129.673V129.672L109.52 128.751V128.752L111.003 127.793L112.226 126.915V126.914L113.454 125.94V125.941L114.943 124.623L116.453 123.222L117.744 121.931L118.941 120.626L120.195 119.158V119.157L121.314 117.758V117.757L122.085 116.697V116.696L122.751 115.671V115.67L123.527 114.416L124.261 113.15L124.859 112.085V112.084L125.417 110.974L126.047 109.563L126.646 108.127L127.124 106.846L127.566 105.54L128.02 103.978L128.446 102.405L128.748 101.099L129.003 99.7164V99.7155L129.243 97.8619L129.445 95.8951V95.8942L129.565 94.0924L129.644 91.7701L129.592 89.9869L129.431 88.233L129.097 86.0299L128.779 84.3541L128.379 82.5524L127.962 80.8717L127.603 79.6735L127.208 78.5709L126.697 77.2379L126.15 75.9313L125.672 74.8385L125.1 73.694L124.271 72.2096L123.34 70.653L122.45 69.2692L121.367 67.7487L120.034 66.067L118.572 64.3912L117.12 62.8551L115.677 61.486L114.001 60.0026L112.361 58.6598L111.029 57.6862L109.733 56.8326L108.202 55.9156L106.682 55.0358L105.443 54.3805L104.391 53.8492L103.484 53.3961V53.3951L102.708 52.9791L102.705 52.9772L102.601 52.899L102.572 52.8707C102.568 52.8664 102.565 52.8603 102.565 52.8541V52.8024H102.562L102.567 52.7916L102.646 52.6305L102.647 52.6285L102.782 52.4147L102.784 52.4127L102.967 52.1832L103.264 51.8131L103.997 50.7574L104.846 49.5074L105.768 48.1227L106.768 46.6119L107.861 44.9869L108.903 43.4811L109.674 42.3717H109.675L110.356 41.4547L111.05 40.5485L111.675 39.7457L111.676 39.7448L112.087 39.2662L112.089 39.2643L112.453 38.9303L112.455 38.9293L112.84 38.6324L112.843 38.6305L113.202 38.4323L113.214 38.4528L113.202 38.4313L113.21 38.4303L113.49 38.3795V38.3766L113.499 38.3776L113.869 38.4459V38.4449L113.873 38.4469L114.779 38.8063H114.78L115.864 39.2858L117.036 39.8434H117.037L118.172 40.4166L119.146 40.9117L119.995 41.3541H119.996L120.063 41.3912L120.065 41.3873L120.072 41.399L120.098 41.441L120.102 41.4381V41.4948H120.104L120.1 41.5035L119.73 42.3688L119.287 43.3688L118.756 44.5406V44.5416L118.157 45.8121L118.156 45.8131L117.516 47.0631L116.943 48.1725L116.942 48.1735L116.541 48.8658V48.8668L115.74 50.1149L117.853 51.6481H117.854L118.895 52.4606L118.896 52.4615L120.308 53.6647L121.818 55.024V55.025L123.214 56.3317L124.47 57.5143L125.604 58.5289L126.584 59.3551L126.839 59.4449L127.067 59.3805L127.628 59.0592V59.0582L128.269 58.6471L128.944 58.1539V58.153L129.915 57.3961V57.3951L130.329 56.9459L130.471 56.5436L130.431 56.0221L130.285 55.5123L129.926 54.4762L129.499 53.2633L129.021 51.9664L128.541 50.5807L128.54 50.5797L128.082 49.0485V49.0475L127.696 47.5944V47.5934L127.482 46.4996V46.4977L127.353 45.3776L127.352 45.3766L127.295 44.361V44.358L127.336 43.4264L127.337 43.4235L127.456 42.528L127.457 42.526L127.618 41.8229L127.619 41.8209L127.874 41.0348L127.875 41.0328L128.166 40.3092L128.433 39.776L128.435 39.7731L128.741 39.3356L128.743 39.3336L129.118 38.9069L129.119 38.9049L129.489 38.5455L129.492 38.5436L129.799 38.3297L130.252 37.9967L132.453 35.8483L134.999 33.3326L137.89 30.3951L140.864 27.4108L143.65 24.7018H143.651L146.026 22.4625L146.027 22.4606L147.079 21.6227L147.081 21.6207L148.04 21.0065L148.042 21.0045L148.845 20.6198V20.6188L148.848 20.6178L149.645 20.3893V20.3883H149.648L150.611 20.2584L150.613 20.2574L151.374 20.2164H151.377L152.147 20.2574L152.149 20.2584L152.832 20.3619L152.835 20.3629L153.34 20.5084L153.334 20.5309L153.341 20.5074L153.347 20.5114L153.961 20.9127L153.964 20.9156L156.151 22.9674H156.152L158.699 25.4362L161.538 28.2906L164.418 31.275V31.276L167.121 34.1198L169.377 36.5309V36.5319L170.419 37.7448L170.42 37.7457L171.097 38.611H171.098L171.754 39.5172V39.5182L172.301 40.3199L172.302 40.3219L172.609 40.8424L172.61 40.8453L172.809 41.3239L172.81 41.3268L172.981 41.899V41.902L173.091 42.4742L173.092 42.4772L173.128 42.9723V42.9772L173.05 43.6022L173.048 43.6071L172.793 44.2897L172.791 44.2926L172.338 45.0895H172.339L172.337 45.0914L171.645 46.1168L171.644 46.1188L170.633 47.3483L170.632 47.3492L168.002 50.1354V50.1364L164.83 53.443H164.829L161.351 56.9645H161.35L157.896 60.3756V60.3766L154.803 63.3502L152.151 65.8297L152.149 65.8317L151.426 66.3522V66.3531L151.421 66.3551L150.796 66.6207L150.792 66.6217L150.073 66.7936H150.07L149.217 66.8873L149.215 66.8883L148.215 66.9196L148.212 66.9186L147.254 66.8512H147.253L146.144 66.7057L146.142 66.7047L145.037 66.4762L145.035 66.4752L144.062 66.194H144.061L143.112 65.8502H143.111L141.939 65.3815L141.938 65.3805L140.762 64.86H140.761L139.751 64.3805L138.803 63.9166L137.83 63.4489L136.939 63.0631L136.343 62.8248L135.611 62.6119L135.164 62.5973L134.721 62.7653L133.945 63.3004L133.416 63.6998H133.417L132.881 64.1891L132.392 64.6832L132.06 65.0826L131.412 65.9508L133.1 69.485L133.834 71.0836V71.0846L134.646 72.9908L134.647 72.9918L135.397 74.8873L135.97 76.4449L135.971 76.4459L137.137 79.8727L138.76 79.8414L139.572 79.8151L140.718 79.7477L141.946 79.6696L143.103 79.5651L144.159 79.4713L145.05 79.3883H145.051L145.827 79.3356V79.3336L145.838 79.3375L145.874 79.3531L145.873 79.3541L145.903 79.3629C145.909 79.3648 145.914 79.3695 145.917 79.3746L145.953 79.442L145.933 79.4528L145.954 79.442L145.955 79.4479L146.252 80.6354L146.57 81.9791L146.93 83.568L147.278 85.1666V85.1676L147.528 86.5582V86.5592L147.715 87.7311L147.717 87.7301L147.716 87.736L147.706 87.8561H147.709L147.702 87.8658L147.646 87.9596L147.625 87.9479L147.649 87.9625L147.636 87.9684L147.422 88.0729L147.423 88.0739L147.416 88.0748L146.191 88.2887L144.738 88.5182L143.071 88.7418L138.757 89.2604L138.545 95.0162L138.451 97.319L138.342 99.4391L138.222 101.231V101.232L138.144 101.961V101.962L137.974 103.12L142.143 104.431H142.144L143.862 105.004V105.005L145.237 105.525H145.238L146.291 105.978L146.292 105.976L146.299 105.984L146.538 106.239C146.542 106.243 146.544 106.248 146.544 106.254L146.57 106.597L146.547 106.599L146.571 106.597L146.57 106.604L146.314 107.776V107.777L145.955 109.177V109.178L145.502 110.741V110.742L145.007 112.298V112.299L144.543 113.69L144.126 114.846H144.127L144.125 114.849L143.942 115.183L143.945 115.184L143.936 115.191L143.628 115.394L143.63 115.397L143.616 115.398L143.105 115.424H143.101L142.236 115.289H142.234L140.558 114.877H140.557L139.286 114.544H139.285L138.02 114.184L136.9 113.85H136.899L136.181 113.621L135.464 113.382L135.04 113.316L134.755 113.381L134.522 113.563L134.327 113.841L133.9 114.585L133.406 115.49L132.886 116.479V116.48L132.261 117.626L132.26 117.627L131.422 119.028H131.421L130.541 120.45V120.451L129.729 121.679L129.728 121.68L127.868 124.374L135.188 131.838H135.189L138.215 134.968L140.752 137.692V137.693L142.736 139.932L142.738 139.934L143.457 140.961L143.459 140.964L143.834 141.682V141.683L144.184 142.496V142.498L144.449 143.284L144.45 143.287L144.596 143.917L144.573 143.922L144.597 143.917V143.92L144.648 144.587V144.589L144.612 145.199L144.611 145.203L144.477 145.807L144.476 145.81L144.251 146.409H144.252L144.25 146.413L143.969 146.907V146.908L143.967 146.91L143.581 147.425H143.582L143.58 147.427L143.138 147.912L143.135 147.914L142.734 148.247V148.248L142.731 148.249L142.278 148.525L142.275 148.527L141.66 148.782L141.658 148.783L140.991 148.981H140.989L140.39 149.09L140.387 149.091L139.668 149.117H139.665L138.998 149.049L138.994 149.048L138.344 148.877L138.34 148.876L137.616 148.569L137.612 148.566L136.639 147.926L136.636 147.923L134.584 146.069H134.583L131.864 143.47V143.469L128.275 139.913L125.213 136.844L122.599 134.272L120.269 131.979L120.135 131.931L120.026 131.969L119.774 132.165L119.495 132.419L119.189 132.735L119.188 132.736L118.725 133.153L118.723 133.154L117.843 133.846L116.801 134.633H116.8L115.696 135.405H115.695L114.414 136.233L112.814 137.208H112.813L111.147 138.156H111.146L109.693 138.917L108.198 139.687L107.21 140.286H107.209L106.578 140.762L106.476 140.916L106.435 141.082L106.477 141.432L106.674 142.343L106.945 143.432L107.252 144.609L107.555 145.823V145.824L107.794 147.011V147.012L107.956 148.038V148.041L107.972 148.614L107.948 148.615L107.973 148.614L107.971 148.622L107.768 149.247L107.771 149.248L107.335 149.683L107.336 149.684L107.327 149.688L106.411 150.099L106.409 150.1L103.742 151.006L102.127 151.527V151.528L100.715 151.944L99.5117 152.252V152.253H99.5039L99.2129 152.237L99.1982 152.231L99.0107 152.059L99.0098 152.06L99.0059 152.052L98.6719 151.385V151.383L98.3281 150.54L98.3271 150.539L97.9785 149.57L97.6289 148.486L97.2695 147.288L96.9521 146.168L96.7227 145.313L96.415 144.197L96.2119 143.82L95.8896 143.665L95.2139 143.674H95.2148L94.4961 143.716L92.4277 143.768L89.9746 143.81L87.2666 143.836H84.2812L81.9062 143.784H81.9053L80.0664 143.69L80.0635 143.689L79.2354 143.528H79.2344L78.7676 143.409L78.332 143.341L77.9512 143.316L77.7568 143.38L77.6338 143.508L77.4756 143.795L77.3398 144.144L77.252 144.526L77.1172 145.073L76.8516 146.151L76.8506 146.152L76.5283 147.418L76.1953 148.751H76.1943L75.6895 150.569L75.6885 150.571L75.3711 151.435H75.3721L75.3682 151.441L75.0605 151.868L75.0645 151.87L75.0508 151.876L74.6758 152.037L74.6777 152.041L74.6641 152.039L74.2793 151.997H74.2773L73.4912 151.851H73.4902L72.5576 151.648L71.5674 151.408L70.5 151.142L69.3115 150.825L68.1924 150.517L67.3428 150.278L67.3418 150.277L66.3262 149.955L66.3232 149.953L65.8857 149.729L65.8838 149.732L65.876 149.72L65.6992 149.44L65.6953 149.442V149.042L65.6963 149.037L65.79 148.584V148.583L66.082 147.38L66.4307 145.942L66.8057 144.38L67.1494 142.849L67.4307 141.516L67.6436 140.386L67.6035 140.211L67.4785 140.086L66.8184 139.714L66.0059 139.302L65.084 138.849L63.9902 138.302L63.9893 138.301L62.708 137.609H62.707L61.4258 136.859V136.858L60.3633 136.208L59.3359 135.525V135.524L58.1328 134.686V134.685L56.9707 133.832V133.831L56.0283 133.112L54.0176 131.526L46.4854 139.001L43.4961 141.949L40.751 144.631L38.4541 146.855L38.4531 146.856L37.5889 147.642L37.5869 147.643L36.9727 148.112L36.9707 148.114L36.252 148.567L36.251 148.568L35.5322 148.943L35.5293 148.944L34.9307 149.168L34.9268 149.169L34.167 149.33V149.331H34.1621L33.5996 149.341L33.5938 149.34L33.0371 149.211H33.0361L33.0332 149.209L32.2568 148.876L32.2539 148.875L31.6396 148.515L31.6367 148.513L31.0381 148.034L31.0361 148.032L30.4893 147.469L30.5049 147.453L30.4883 147.469L30.4873 147.467L30.0342 146.869H30.0332L30.0322 146.866L29.6621 146.21L29.6611 146.207L29.3799 145.541L29.3789 145.537L29.2178 144.902H29.2168V144.898L29.1494 144.284L29.1719 144.281L29.1484 144.284L29.1494 144.279L29.2168 143.69V143.687L29.4043 142.926L29.4053 142.924L29.6709 142.128L29.6719 142.126L29.9941 141.391L29.9961 141.388L30.751 140.228V140.227L30.7539 140.224L32.4355 138.302L32.4365 138.301L34.916 135.651V135.65L38.624 131.88L41.5986 128.848L44.1191 126.265L46.3398 123.961L46.3867 123.827L46.3525 123.702L45.9131 122.986L45.3926 122.159L44.7676 121.211L44.0488 120.09H44.0479L43.1943 118.72H43.1934L42.3809 117.303L41.7139 116.105L41.1523 115.064L40.6309 114.173L40.1943 113.417L40.0674 113.302L39.999 113.279H39.9238L38.9648 113.528L37.8457 113.85L36.5693 114.252L35.2207 114.673L33.9131 115.064L32.8086 115.381L32.8076 115.382L32.1924 115.517L31.1396 115.715C31.1282 115.717 31.1168 115.711 31.1133 115.7L29.8164 111.606L29.3271 109.981V109.98L28.8838 108.486L28.54 107.235V107.234L28.4463 106.75L28.4688 106.745L28.4443 106.75L28.4463 106.74L28.54 106.287C28.541 106.282 28.5434 106.277 28.5469 106.274L28.9062 105.941L28.9053 105.94L28.9131 105.937L29.7256 105.578L29.7275 105.577L31.7275 104.925L33.0713 104.483L34.3525 104.072L35.9902 103.511V103.51L36.4824 103.288L36.6865 103.068L36.7373 102.802L36.6445 102.311L36.54 101.713L36.5391 101.71L36.4141 99.9078L36.2949 97.7457L36.2168 95.3756L36.0186 89.3287L31.2793 88.7682H31.2783L29.4346 88.5436L27.8936 88.3405L26.5029 88.1588L26.5049 88.1354L26.502 88.1598L26.4941 88.1559L26.416 88.1149L26.415 88.1178L26.4072 88.1061L26.3818 88.0651L26.3779 88.067V88.0114L26.5762 86.861L26.8057 85.5582L27.0977 84.0221L27.3887 82.4908V82.4899L27.6445 81.193L27.873 80.0211L27.8828 79.9742V79.9586C27.8828 79.9492 27.8887 79.9398 27.8975 79.9362L27.9238 79.9264L27.9326 79.9479L27.9238 79.9244H27.9316L29.3584 79.8727H29.3594L30.9736 79.8307L32.8799 79.7887L37.8477 79.7115L38.9365 76.3785V76.3776L39.4736 74.8883V74.8873L40.1768 73.0953L40.9268 71.3395V71.3385L41.6201 69.8854L42.2188 68.6412L42.6973 67.4957L43.0449 66.5573L43.0537 66.2028L42.8887 65.9108L42.3008 65.2135L41.5723 64.402L40.7285 63.5475L38.584 61.4137L35.8496 62.7809L35.8486 62.7819L34.6357 63.3541L34.6338 63.3551L33.3008 63.902H33.2998L32.0342 64.3551L32.0322 64.3561L31.0586 64.6217H31.0566L30.082 64.7936H30.0811L28.8154 64.9449H28.8145L27.4971 65.0387H27.4961L26.3086 65.0651H26.3076L24.8545 65.0387H24.8516L23.8623 64.9293L23.8584 64.9283L23.0459 64.7047L23.043 64.7037L22.2461 64.3385H22.2441L21.6299 63.9948L21.6279 63.9938L20.9355 63.5406L20.9346 63.5397L20.2676 63.0446H20.2666L19.7197 62.6071L19.7188 62.6051L18.9326 61.8707H18.9316L16.3691 59.2711L13.333 56.1617L9.94238 52.6832L9.94141 52.6823L6.62402 49.2037L3.74316 46.0944V46.0934L1.34277 43.4274H1.3418L1.33984 43.4235L0.902344 42.7311L0.900391 42.7262L0.722656 42.2057V42.2018L0.628906 41.6969L0.62793 41.1979L0.628906 41.193L0.72168 40.7155V40.7145L0.722656 40.7115L0.858398 40.2848V40.2838L1.03027 39.8199L1.03125 39.819L1.23438 39.3502L1.38965 38.9918V38.9908L1.39258 38.986L1.76758 38.4655L1.76953 38.4625L4.50391 35.5983L7.69141 32.3014H7.69238L11.4111 28.5309V28.5299L15.1553 24.7955H15.1562L18.4785 21.5719H18.4795L21.3438 18.8375V18.8365L21.3467 18.8346L21.9873 18.4078L22 18.4274L21.9873 18.4069L21.9912 18.4049L22.3926 18.2438H22.3936L22.8213 18.0973H22.8232L23.2246 18.0035L23.2256 18.0026L23.4912 17.9615V17.9606H23.4961L23.7617 17.9762ZM118.548 89.7701C118.552 89.7745 118.555 89.7807 118.555 89.7867L118.544 100.385L118.518 104.563L118.45 108.308L118.372 111.454V111.456L118.263 112.43L118.262 112.433L118.09 113.1L118.089 113.103L117.834 113.692L117.832 113.695L117.515 114.2L117.494 114.188L117.515 114.201L117.511 114.204L117.12 114.605H117.121L117.119 114.606L116.271 115.336L116.255 115.341L87.7344 115.263L68.958 115.196L62.7861 115.102H62.7852L59.4932 114.946L59.4893 114.945L58.8906 114.81L58.8848 114.807L58.3379 114.516L58.334 114.513L57.9434 114.19L57.9424 114.189L57.5146 113.788L57.1025 113.366L57.1016 113.364L56.7832 112.973L56.7812 112.97L56.542 112.559L56.54 112.554L56.3887 112.101L56.3877 112.097L56.2158 110.722V110.719L56.1377 108.199V108.198L56.1221 101.454L56.1377 95.8961V95.8951L56.2158 92.8385V92.8375L56.3252 90.8951L56.3262 90.8912L56.3887 90.5846L56.4111 90.5885L56.3867 90.5836L56.3916 90.5768L56.5684 90.2955L56.5879 90.3073L56.5674 90.2946L56.5742 90.2887L56.8809 90.0494L56.8955 90.068L56.8799 90.0475L56.8896 90.0455L57.2754 89.9518V89.9508H57.2803L61.7441 89.8414L69.2549 89.7789L87.7861 89.7633H118.531C118.537 89.7634 118.544 89.7658 118.548 89.7701ZM104.706 98.1383L104.103 98.1901L104.097 98.191L103.556 98.3629L103.552 98.3649L102.989 98.6617L102.986 98.6627L102.56 98.9655L102.558 98.9664L102.12 99.3307L102.118 99.3326V99.3336L101.744 99.7184L101.742 99.7194L101.487 100.038L101.484 100.041L101.297 100.39L101.296 100.392L101.124 100.803L101.123 100.805V100.806L100.993 101.222L100.992 101.225L100.936 101.585L100.935 101.587L100.909 101.957V101.958L100.898 102.4V102.855L100.909 103.24V103.245L100.993 103.645L100.994 103.65L101.192 104.129V104.13H101.193L101.459 104.635L101.46 104.639H101.461L101.783 105.066L101.785 105.068L102.171 105.469L102.173 105.472L102.174 105.471L102.679 105.857L102.681 105.859L103.228 106.192L103.23 106.193L103.726 106.407L103.729 106.408L104.379 106.585L104.384 106.587L104.385 106.586L104.921 106.612H104.927L104.926 106.61L105.51 106.502H105.513L106.314 106.236L106.316 106.235L106.968 105.943L106.972 105.941L107.534 105.566L107.536 105.564L108.016 105.137L108.019 105.134L108.367 104.681L108.37 104.677L108.349 104.667L108.37 104.676L108.62 104.156L108.621 104.153L108.824 103.528L108.825 103.525L108.945 102.842V102.839L108.981 102.147V102.145L108.945 101.291V101.286H108.944L108.794 100.687L108.792 100.681L108.771 100.693L108.791 100.681L108.489 100.134L108.487 100.13L108.486 100.131L107.939 99.4645L107.938 99.4625H107.938L107.334 98.8893L107.331 98.8873L106.8 98.5123L106.795 98.5084L106.794 98.5094L106.206 98.2955L106.202 98.2946L105.441 98.1647L105.438 98.1637L104.709 98.1383H104.706ZM68.4785 98.0963H68.4766L68.0752 98.1481H68.0742V98.149L67.7148 98.2164H67.7129L67.4736 98.2848L67.4688 98.2858L67.2295 98.4059L67.2266 98.4069L66.8672 98.6471L66.8662 98.6481L66.4805 98.9557H66.4795L66.1045 99.2897L66.1025 99.2906V99.2916L65.7285 99.692L65.7256 99.6949L65.3818 100.216L65.3809 100.217L65.0732 100.791L65.0723 100.794L64.8848 101.298L64.8828 101.302V101.303L64.7637 101.954V101.957L64.7373 102.519V102.525L64.8418 103.108L64.8428 103.112L65.082 103.809L65.083 103.812L65.1045 103.801L65.084 103.812L65.3545 104.359L65.3555 104.362L65.7148 104.908L65.7168 104.91L66.1016 105.389L66.1045 105.392L66.4639 105.71L66.4668 105.713L66.8525 105.952L66.8545 105.953L67.3232 106.192L67.3242 106.193L67.793 106.396L67.7959 106.397L68.1914 106.517L68.1953 106.518L68.6797 106.586H68.6855L68.6846 106.585L69.2314 106.528H69.2354V106.527L69.834 106.371H69.8369L70.5039 106.115L70.5059 106.114L71.1465 105.781L71.1494 105.779L71.6963 105.378L71.6992 105.376L72.1406 104.934H72.1396L72.457 104.439L72.46 104.436H72.459L72.6729 103.941L72.6738 103.939L72.8506 103.355L72.8516 103.353L72.9707 102.749L72.9717 102.746L73.0078 102.23V102.227L72.9717 101.716V101.714H72.9707L72.8613 101.13V101.129L72.7051 100.556L72.7041 100.552L72.501 100.094L72.499 100.09L72.2178 99.6793L72.2158 99.6764L71.8193 99.2389L71.8174 99.2369L71.3486 98.8463L71.3457 98.8434L71.3447 98.8444L70.876 98.5787L70.874 98.5768L70.3945 98.3795L70.3926 98.3785L69.835 98.2164H69.833L69.2969 98.1119H69.2939L68.8662 98.0807H68.8643L68.4785 98.0963ZM85.3662 57.566V57.5651L85.3721 57.569L85.8252 57.861L86.3613 58.2203H86.3623L86.9609 58.6481L86.9619 58.649L87.6279 59.1959L87.6289 59.1949L88.3506 59.9166L89.0176 60.6774L89.0186 60.6793L89.5234 61.3717L89.5254 61.3737L89.9521 62.1237L89.9531 62.1246L90.4219 63.068V63.069L90.8496 64.0426V64.0446L91.1416 64.9147V64.9156L91.4336 66.0201L91.4346 66.0221L91.6221 67.2252V67.2272L91.7158 68.6393V68.6403L91.7578 70.4264L91.7832 71.8639L91.8516 73.2799L91.8506 73.2809L91.9551 74.4899L92.0889 75.1656L92.0898 75.1647L92.25 75.6403L92.4717 76.0807L92.7256 76.4537L92.9443 76.6315L93.2168 76.7379L93.542 76.7477L93.9014 76.6696L94.3037 76.5026V76.5016L94.6484 76.2653H94.6494L95.0068 75.8932V75.8922L95.3115 75.4703V75.4694L95.499 75.0582L95.6436 74.5953V74.5944L95.7471 74.0387V74.0377L95.8301 73.4791V73.4781L95.8564 72.9987L95.8301 72.5328L95.7627 72.0182L95.6699 71.528L95.5508 71.1422L95.4307 70.778L95.4297 70.775L95.3877 70.525L95.4111 70.5211L95.3848 70.525L95.3896 70.5123L95.4463 70.3668L95.4688 70.3746L95.4434 70.3649L95.4541 70.3571L95.5059 70.3151L95.5039 70.3131L95.5156 70.3102L95.583 70.2946V70.2926L95.5918 70.2946L95.6855 70.3102C95.6903 70.311 95.6948 70.3136 95.6982 70.317L95.7764 70.3951L95.7773 70.3942L95.7803 70.399L96.2178 71.1237L96.7285 72.0143V72.0153L97.2598 73.0836L97.2607 73.0846L98.0049 74.735L97.9844 74.7448L98.0059 74.735V74.7369L98.3809 75.8043L98.3594 75.8121L98.3818 75.8043V75.8082L98.5537 76.8346L98.5547 76.8375L98.6113 78.2799V78.2819L98.5703 79.6149L98.5693 79.6178L98.4346 80.5914L98.4336 80.5944L98.1836 81.5006L98.1826 81.5035L97.7295 82.5973L97.7285 82.5992L97.3281 83.3961H97.3271L96.8584 84.2506V84.2516L96.3945 85.0123L96.3936 85.0133L96.0342 85.5446H96.0352L96.0332 85.5465L95.5645 86.0934L95.5605 86.0963L95.1494 86.4039L95.1348 86.3854L95.1494 86.4049L95.1416 86.4078L94.6729 86.5533L94.6738 86.5543H94.668L94.0273 86.5963H94.0244L93.5195 86.5699H93.5166L92.9697 86.4762L92.9668 86.4752L92.4619 86.3297L92.459 86.3287L92.084 86.1686L92.0781 86.1637L91.625 85.7623L91.624 85.7633L91.6211 85.7574L90.9648 84.7311H90.9639V84.7301L90.167 83.2662L90.166 83.2653L89.166 81.2496L87.0488 76.7955L85.9258 78.7301L85.4307 79.6002L84.9268 80.5836L84.4736 81.5406H84.4746L84.1562 82.2897H84.1572L83.8857 83.024L83.6104 83.9127L83.3398 84.819L83.1416 85.5787L82.876 86.6207H82.877L82.874 86.6256L82.6709 87.0104L82.6504 86.9996L82.6738 87.0123L82.665 87.0182L82.5449 87.1119L82.5469 87.1139L82.5371 87.1158L82.3916 87.1578L82.3926 87.1598L82.3818 87.1588L81.8926 87.0914L81.8887 87.0895L81.5137 86.9703L81.5107 86.9694L81.0576 86.7662L81.0566 86.7653L80.5879 86.5153L80.5859 86.5143L80.1855 86.2594L80.1973 86.2399L80.1846 86.2594L80.1816 86.2565L79.7861 85.8981L79.7832 85.8951L79.2988 85.2955L79.2979 85.2936L78.834 84.5856L78.833 84.5836L78.4326 83.8502L78.4316 83.8473L78.0303 82.9049L78.0293 82.903L77.7373 81.9547V81.9528L77.5391 80.9264V80.9244L77.4141 79.7369V79.735L77.3877 78.5739V78.5719L77.4453 77.3737V77.3717L77.5908 76.1588L77.5918 76.1569L77.8154 74.944V74.942L78.123 73.8219V73.8209L78.5918 72.4459L78.5928 72.444L79.1494 71.0592L79.1504 71.0573L79.7129 69.8854H79.7139L80.3389 68.6979V68.6969L81.1143 67.2809V67.2799L81.8857 65.8844L82.5674 64.7242V64.7233L83.1768 63.6295V63.6305L83.7646 62.4596V62.4586L84.2588 61.3785V61.3776L84.54 60.5914V60.5924L84.7109 59.943V59.942L84.8721 59.2623V59.2614L84.9766 58.6783L85.002 58.2897L85.0176 57.9987L85.0186 57.9967L85.0537 57.7574V57.7565L85.0566 57.7516L85.123 57.5905L85.1211 57.5885L85.1299 57.5817L85.1719 57.5446L85.1709 57.5436L85.1787 57.5406L85.2207 57.525C85.2255 57.5232 85.2314 57.5235 85.2363 57.525L85.3662 57.566ZM105.976 78.9772V78.9762L105.981 78.9781L106.383 79.1139V79.1129L106.386 79.1149L106.812 79.3287V79.3278L106.815 79.3297L107.175 79.569L107.177 79.5719L107.562 79.9156L107.562 79.9147L107.564 79.9176L108.002 80.4381L108.003 80.4391L108.43 81.0123L108.411 81.026L108.431 81.0123L108.432 81.0143L108.78 81.5768L108.781 81.5778L109.088 82.151L109.089 82.152L109.381 82.7614V82.7623L109.62 83.3512H109.621V83.3531L109.741 83.7643L109.742 83.7682L109.794 84.1852H109.795L109.794 84.1891L109.768 84.5485H109.77L109.767 84.5553L109.637 84.8893H109.638L109.633 84.8951L109.403 85.1764L109.404 85.1774L109.398 85.1813L109.039 85.4313H109.04L109.034 85.4342L108.606 85.5846L108.607 85.5856L108.601 85.5865L108.001 85.6227H107.999L107.119 85.5865L107.116 85.5856L106.424 85.4918H106.422L105.808 85.3571L105.805 85.3551L105.325 85.1842V85.1852L105.318 85.1793L105.104 84.9918L105.103 84.9938L105.099 84.983L104.979 84.7018L104.978 84.6998L104.78 84.0592H104.779V84.0582L104.566 83.2877L104.353 82.4596V82.4586L104.165 81.6207L103.962 80.8346L103.78 80.1696L103.671 79.8463L103.67 79.8434L103.619 79.5787H103.614L103.619 79.5651L103.687 79.3776C103.688 79.3732 103.691 79.3695 103.695 79.3668L103.883 79.236L103.882 79.235L103.89 79.233L104.223 79.1393L104.226 79.1383L104.559 79.0817L104.955 79.0192H104.956L105.331 78.9772L105.649 78.9508H105.653L105.976 78.9772ZM68.043 80.3512L68.0449 80.3522L68.6182 80.4459H68.6201L69.2344 80.6022L69.2373 80.6031L69.7939 80.8063L69.7969 80.8073L70.1982 81.0211L70.2021 81.0231L70.5459 81.2994L70.5488 81.3033L70.8047 81.6266L70.8057 81.6256L70.8076 81.6324L70.9541 82.0065L70.9551 82.0123L71.0068 82.4244L70.9844 82.4274L71.0078 82.4244L71.0068 82.4303L70.9551 82.8414L70.9541 82.8453L70.793 83.3658L70.792 83.3688L70.5527 83.9156L70.5508 83.9176L70.2754 84.3971L70.2744 84.3981L69.54 85.4821L69.5215 85.4918L65.1465 85.5856H65.1455L63.4688 85.5963H63.4678L62.0518 85.5699H62.0508L60.8789 85.5026L60.8799 85.4791L60.8779 85.5045L60.8691 85.4996L60.791 85.4576L60.7812 85.4479L60.75 85.3854C60.7476 85.3806 60.7468 85.375 60.748 85.3698L60.7891 85.193L60.8125 85.1979L60.7881 85.192L60.792 85.1862L61.0312 84.775L61.0322 84.774L61.3291 84.3053V84.3043L61.6885 83.7887L61.6895 83.7877L62.127 83.2252L62.1279 83.2242L62.6748 82.6246L62.6758 82.6237L63.249 82.0514L63.25 82.0494L63.7451 81.6334L63.7471 81.6315L64.2412 81.2877L64.2432 81.2867L64.7998 80.9537H64.8008L65.3477 80.6617L65.3506 80.6608L65.7617 80.4987L65.7646 80.4977L66.208 80.3883H66.2109L66.8105 80.3365L66.8115 80.3356L67.4521 80.3102H67.4541L68.043 80.3512ZM164.184 39.6696L164.09 39.6852L164.081 39.6871L164.082 39.6891L163.91 39.7926L163.909 39.7936L163.722 39.9127L163.72 39.9147L163.517 40.0758L163.516 40.0768L163.172 40.3942L160.702 42.8639L157.879 45.7028L154.598 48.9996L146.155 57.5309C146.147 57.5399 146.147 57.5541 146.155 57.5631L147.249 58.6832V58.6842L147.692 59.111L147.694 59.1129L148.157 59.4723L148.159 59.4733L148.576 59.7389L148.582 59.7428L148.832 59.8092C148.837 59.8105 148.843 59.8101 148.848 59.8082L149.181 59.6725L149.189 59.6696L149.188 59.6686L151.787 57.2155L154.725 54.3922L158.12 51.0328H158.121L166.881 42.2565C166.89 42.2475 166.89 42.2324 166.881 42.2233L165.631 40.942L165.136 40.4528V40.4518L164.698 40.0358L164.697 40.0348L164.307 39.7008L164.298 39.694L164.297 39.6959L164.193 39.6705L164.184 39.6676V39.6696ZM9.53906 38.7379L9.5293 38.7408L9.53125 38.7428L9.21387 39.0348H9.21289L8.83691 39.4108L8.43555 39.8483V39.8492L8.0498 40.318L8.04785 40.3199L8.06738 40.3326L8.04785 40.3209L7.75098 40.7897L7.75 40.7906L7.77051 40.8014L7.75 40.7916L7.54199 41.2028L7.53711 41.2115L7.53906 41.2125L7.52344 41.4352L7.52246 41.4489L7.54688 41.4371L7.52637 41.4479L7.67188 41.7448L7.6748 41.7506H7.67578L9.93066 44.1617L12.5146 46.9117L15.5723 50.068L18.6758 53.2448V53.2457L21.4209 56.0006L23.7695 58.3336L23.7715 58.3356L24.293 58.7623L24.2959 58.7653L24.7754 59.0201L24.7852 59.025V59.0231L25.1025 59.0387L25.1172 59.0397L25.1152 59.0358L25.4805 58.8326L25.4854 58.8297H25.4844L26.1777 58.1891L26.1787 58.1871L26.6055 57.734L26.6064 57.733L26.9658 57.2799L26.9678 57.278L27.2178 56.8766L27.2217 56.8707L27.1982 56.8639L27.2207 56.8698L27.2881 56.6041C27.2891 56.5996 27.2887 56.5948 27.2871 56.5905L27.1572 56.2565L27.1533 56.2477L27.1514 56.2496L24.7256 53.692L21.9229 50.7701L18.5791 47.3951V47.3942L15.2305 44.0612H15.2295L12.376 41.2487L9.81836 38.7535L9.81152 38.7467L9.81055 38.7487L9.6748 38.6969C9.66985 38.695 9.6642 38.6943 9.65918 38.6959L9.53906 38.7379ZM86.0732 0.576782L86.0762 0.577759L86.4355 0.712524V0.713501L86.957 0.926392L87.5303 1.17639L87.5312 1.17737L88.0781 1.44788V1.44885L88.6514 1.75061L88.6533 1.75159L89.3301 2.17834H89.3311L89.9971 2.6217H89.998L90.5605 3.03381L90.5625 3.03479L91.1201 3.54553L91.1211 3.54651L91.8447 4.31799L91.8457 4.31897L92.5908 5.19885L92.5918 5.19983L93.248 6.05334L93.249 6.0553L93.874 7.01331V7.01526L94.5146 8.15002L94.5156 8.151L95.0986 9.29651L95.0996 9.29846L95.501 10.2565V10.2584L95.8242 11.2584L95.8252 11.2604L96.1006 12.4742V12.4752L96.3301 13.7145V13.7164L96.4502 14.8102V14.8121L96.4922 15.8951V15.8971L96.4609 17.1725V17.1735L96.3721 18.4137V18.4147L96.2363 19.441V19.443L95.9971 20.5367L95.9961 20.5377L95.543 22.0846V22.0856L94.9805 23.7526V23.7535L94.4072 25.3258L93.7041 27.1803L93.2363 28.6715L92.9551 29.9791L92.7939 31.2584L92.7578 32.2399L92.7676 33.0944L92.8604 33.7643L92.9941 34.1862L93.1875 34.4518L93.4404 34.6744L93.7266 34.817L93.9834 34.8727L94.3125 34.8326L94.7793 34.6871L95.2969 34.5006V34.4996L95.8027 34.2604L96.3711 33.9147V33.9137L97.1211 33.3307L97.9062 32.6334L98.624 31.9323L99.3154 31.1471L100.033 30.1998V30.2008L100.689 29.2526L101.14 28.4713V28.4703L101.499 27.6578V27.6588L101.857 26.6198V26.6188L102.175 25.528V25.527L102.378 24.568L102.748 22.3717C102.75 22.3624 102.756 22.3543 102.766 22.3522C102.775 22.3502 102.785 22.3549 102.79 22.3629L103.593 23.5865V23.5875L103.968 24.2174L103.969 24.2184L104.406 25.068L104.859 26.0162L104.86 26.0172L105.251 26.8971V26.8981L105.621 27.8307V27.8317L105.996 28.9254L106.34 30.0084V30.0094L106.596 30.8893V30.8912L106.768 31.7662V31.7672L106.93 32.8512V32.8522L107.039 33.9459V33.9469L107.075 34.8951V34.8971L107.039 35.8297V35.8307L106.93 36.9352V36.9362L106.768 38.0035V38.0055L106.585 38.8854H106.586L106.585 38.8873L106.313 39.7516V39.7526L105.943 40.7789V40.7799L105.517 41.8219L105.516 41.8229L105.115 42.7028L105.114 42.7047L104.619 43.6002V43.6012L103.952 44.6949L103.233 45.8151L103.232 45.816L102.55 46.774V46.775L101.805 47.7233L101.804 47.7242L100.882 48.7867L99.9238 49.8287L99.9229 49.8297L99.084 50.6578L99.083 50.6588L98.2285 51.3932L98.2275 51.3942L97.2275 52.1383L97.2266 52.1393L96.2109 52.8063L96.209 52.8073L95.3867 53.2604L95.3848 53.2614L94.6758 53.569H94.6738L94.0488 53.7828H94.0479L93.5264 53.9186L93.5273 53.9205L93.5166 53.9196L93.4229 53.9039V53.9059L93.4141 53.9L93.3359 53.8483L93.3486 53.8287L93.334 53.8502L93.3281 53.8395L93.209 53.6266L93.208 53.6237L92.8584 52.8112L92.4727 51.8112L92.0459 50.7018L91.5664 49.4615L91.0205 48.1031L90.4736 46.8483L90.0312 45.9069L89.5107 44.9069L88.6621 43.3033L87.6621 41.5065L86.6621 39.7457L84.2607 35.525L83.8604 36.7008L83.6738 37.3922L83.4766 38.6442L83.2783 40.0973L83.1279 41.5905L83.0078 43.2828L82.9189 45.3346L82.8516 47.4127L82.8252 49.1725L82.8096 50.6676V50.6686L82.7422 51.9342L82.6748 52.986H82.6768L82.6719 52.9957L82.6348 53.0631L82.623 53.0739L82.5557 53.1002H82.54L82.3779 53.0494V53.0504L82.3711 53.0446L81.7305 52.5397L81 51.9137L80.1562 51.1793L80.1553 51.1783L79.2393 50.2828L79.2383 50.2819L78.2227 49.1774L78.2217 49.1764L77.2891 48.0416L77.2881 48.0397L76.5693 47.0553L76.5684 47.0543L75.9541 46.0543L75.2871 44.8658L75.2861 44.8649L74.6982 43.6774L74.6973 43.6764L74.2705 42.6764L74.2695 42.6744L73.8428 41.4088L73.8418 41.4069L73.5654 40.2194V40.2164L73.3887 38.8414L73.3877 38.8405L73.2842 36.9596L73.2422 35.1881V35.1871L73.2842 33.7448V33.7428L73.4141 32.4664L73.415 32.4645L73.6592 31.2096L73.6602 31.2076L73.9355 30.192L73.9365 30.191L74.3525 28.9664L74.3535 28.9655L74.832 27.7369L74.833 27.735L75.2959 26.7106V26.7096L75.2979 26.7076L75.9639 25.5358L75.9648 25.5338L77.168 23.7584L77.1689 23.7574L78.5801 21.7887V21.7877L80.0596 19.8815L81.5439 17.9713L82.9551 16.0387V16.0397L84.1416 14.3073V14.3063L84.8066 13.2203V13.2194L85.2441 12.2721L85.6865 11.1637L86.0557 10.0865V10.0875L86.2842 9.2262V9.22522L86.4297 8.32971L86.4971 7.33167L86.5234 6.34827L86.4561 5.47229L86.3516 4.65393L86.1748 3.76624L85.9775 2.92834L85.79 2.29846L85.6035 1.77893H85.6025V1.77795L85.457 1.28772L85.4561 1.28674L85.3525 0.870728L85.3516 0.867798L85.3262 0.686157L85.3486 0.682251L85.3242 0.686157L85.3262 0.678345L85.3359 0.620728C85.3369 0.615857 85.3401 0.611393 85.3438 0.608032L85.3857 0.570923L85.3848 0.569946L85.3936 0.567017L85.5547 0.509399V0.508423H85.792L86.0732 0.576782ZM157.351 33.0035L157.342 33.0074L157.359 33.026L157.343 33.0094L154.942 35.3688L152.249 38.025L149.104 41.1705L145.957 44.3844L143.223 47.1969L140.915 49.6246L140.913 49.6266L140.569 50.1217L140.565 50.1276V50.1285L140.415 50.5651L140.412 50.5758H140.415L140.456 50.9498L140.457 50.9615L140.479 50.9479L140.46 50.9606L140.741 51.3981L140.743 51.401L141.42 52.1608V52.1617L142.634 53.4684C142.638 53.473 142.644 53.476 142.65 53.4762C142.657 53.4763 142.663 53.4739 142.668 53.4694L151.188 44.818L154.47 41.485L157.215 38.6149L159.632 36.068L159.638 36.0612H159.636L159.729 35.8365C159.731 35.8319 159.732 35.8267 159.73 35.8219L159.674 35.6188L159.672 35.6129L159.651 35.6246L159.671 35.6129L159.432 35.2018L159.431 35.1998L159.098 34.7203L159.097 34.7194L159.096 34.7203L158.711 34.2145V34.2135L158.31 33.7291L158.309 33.7281L157.938 33.3326V33.3317L157.615 33.0094L157.61 33.0035L157.609 33.0045L157.505 32.9528C157.499 32.95 157.492 32.9495 157.486 32.9518L157.351 33.0035ZM16.2578 32.0192L16.249 32.0231L16.25 32.024L15.8799 32.3678V32.3688L15.4531 32.7848L14.9688 33.2643H14.9678L13.7285 34.5455C13.7202 34.5542 13.7198 34.5686 13.7275 34.5778L14.3418 35.2965H14.3428L14.8115 35.8024L16.9414 38.0162H16.9424L19.4785 40.5885L22.3428 43.5211L25.2393 46.4694L27.7959 49.0944L29.9414 51.3336L30.5293 51.9733L31.3418 52.9362C31.3499 52.9457 31.3642 52.9477 31.374 52.9401L32.6035 51.9498L32.6045 51.9489L33.0684 51.5221L33.0703 51.5201L33.4971 51.0416L33.499 51.0387L33.8057 50.6012L33.8096 50.5963H33.8086L33.9287 50.2623L33.9316 50.2545H33.9297L33.9199 49.9313L33.9189 49.9186L33.916 49.9205L33.7549 49.6393L33.7529 49.6344L33.752 49.6354L32.1797 47.8639H32.1787L29.6992 45.2496V45.2487L25.2568 40.7701L25.2559 40.7692L21.8711 37.4098L19.0166 34.5817L16.4434 32.0348L16.4365 32.028L16.4355 32.0299L16.3418 31.9938C16.3365 31.9918 16.3305 31.9918 16.3252 31.9938L16.2578 32.0192ZM150.943 26.8834L150.568 26.9508L150.561 26.9528L150.562 26.9537L150.243 27.1412L150.239 27.1442V27.1451L148.651 28.5299H148.65L146.249 30.8375L142.051 35.0621L138.957 38.2389V38.2399L136.343 40.984H136.342L134.087 43.4117L134.082 43.4166V43.4176L133.901 43.776L133.894 43.7906H133.899L133.936 44.0553L133.937 44.0641H133.938L134.167 44.4908L134.169 44.4938L134.528 44.9723L134.53 44.9742L134.957 45.4274L134.958 45.4283L136.088 46.5377L136.104 46.5446C136.11 46.5445 136.117 46.5421 136.121 46.5377L144.949 37.7252L153.762 28.8971C153.771 28.8881 153.77 28.873 153.762 28.8639L152.776 27.8785L152.323 27.4772L152.319 27.4752L151.825 27.1676L151.822 27.1666L151.369 26.9528L151.363 26.9498V26.9508L150.952 26.8834L150.943 26.8824V26.8834ZM23.3066 25.7076L23.3037 25.6852L23.1006 25.7106L23.0898 25.7125L23.0908 25.7155L22.7324 25.9381L22.7295 25.9391L22.7305 25.9401L22.3184 26.2623L22.3174 26.2643L21.8896 26.6647L21.8887 26.6666L21.5029 27.1041L21.502 27.1051L21.1689 27.5485L21.167 27.5494L20.9277 27.9352L20.9238 27.941V27.942L20.8574 28.1813C20.8562 28.186 20.8566 28.1914 20.8584 28.1959L20.9785 28.4879L20.9814 28.4957H20.9824L23.3682 31.0573L26.1289 33.9381L29.3945 37.2819L32.6914 40.6041V40.6051L37.999 45.9117L38.002 45.9147L38.1328 46.0035L38.1396 46.0084L38.1455 45.984L38.1406 46.0065L38.208 46.0221L38.2207 46.025L38.2197 46.0221L38.2725 46.0065L38.2783 46.0045L38.2656 45.984L38.2783 46.0035L38.6016 45.7897L38.6025 45.7887L38.9619 45.5133L38.9629 45.5123L39.3643 45.1627L39.3662 45.1617H39.3652L39.751 44.7496L39.7529 44.7477L40.0713 44.2946L40.0723 44.2916L40.3018 43.8492L40.3047 43.8434L40.2812 43.8385L40.3037 43.8424L40.3711 43.5094L40.373 43.5006L40.3486 43.5045L40.3711 43.5006L40.3145 43.193L40.3125 43.1842L40.3105 43.1852L40.1553 42.9352L40.1533 42.9323H40.1523L38.377 40.9166L38.376 40.9156L35.8555 38.2233L35.8379 38.2389L35.8545 38.2233L32.0322 34.275L28.8027 31.0094L26.0322 28.2487H26.0312L23.5781 25.8219L23.5732 25.816V25.817L23.3174 25.6871L23.3037 25.6803L23.3066 25.7076Z" fill="url(#paint0_linear_550_10278)"/>
<defs>
<linearGradient id="paint0_linear_550_10278" x1="87" y1="-14.9989" x2="87" y2="161" gradientUnits="userSpaceOnUse">
<stop stop-color="#FFE677"/>
<stop offset="1" stop-color="#AE2D1F"/>
</linearGradient>
</defs>
</svg>
